<?xml version="1.0" standalone="no"?>
<!DOCTYPE svg PUBLIC "-//W3C//DTD SVG 20010904//EN"
 "http://www.w3.org/TR/2001/REC-SVG-20010904/DTD/svg10.dtd">
<svg version="1.0" xmlns="http://www.w3.org/2000/svg"
 width="300.000000pt" height="300.000000pt" viewBox="0 0 300.000000 300.000000"
 preserveAspectRatio="xMidYMid meet">
<metadata>
Created by potrace 1.10, written by Peter Selinger 2001-2011
</metadata>
<g transform="translate(0.000000,300.000000) scale(0.050000,-0.050000)"
fill="#000000" stroke="none">
<path d="M2390 4722 c-126 -57 -190 -141 -490 -632 -154 -253 -288 -473 -299
-490 -153 -242 -158 -253 -147 -374 28 -307 -407 -385 -464 -83 -25 135 95
297 220 297 34 0 410 573 584 890 130 236 -427 -27 -767 -364 -521 -513 -401
-1258 203 -1254 271 1 295 26 769 805 377 618 382 627 358 693 -100 276 343
427 456 156 56 -133 -53 -326 -184 -326 -53 0 -66 -15 -227 -280 -64 -104
-190 -311 -281 -459 -252 -409 -301 -510 -301 -615 0 -361 361 -609 683 -468
123 53 190 127 346 385 76 125 282 461 458 747 l321 520 1 145 c1 193 71 275
233 275 280 0 327 -385 58 -467 -143 -44 -805 -1132 -911 -1497 -74 -258 -165
-1009 -133 -1105 14 -41 60 -20 73 34 82 334 309 569 667 688 292 98 308 113
584 567 294 483 280 454 267 564 -26 217 172 360 352 253 197 -116 142 -399
-88 -446 -65 -14 -283 -340 -263 -394 38 -98 499 161 629 352 278 411 -149
929 -599 726 -124 -56 -186 -131 -408 -495 -296 -485 -286 -463 -275 -593 13
-154 -75 -262 -218 -265 -290 -7 -350 399 -69 470 86 21 334 389 721 1067 220
387 23 791 -387 791 -248 0 -317 -61 -616 -550 -782 -1278 -731 -1185 -707
-1258 94 -283 -337 -433 -452 -158 -56 134 53 326 184 326 40 0 269 296 269
348 0 4 105 177 233 384 293 474 314 521 303 666 -26 347 -379 565 -686 424z"/>
</g>
</svg>
